<?xml version="1.0" encoding="UTF-8"?>
<svg id="Laag_1" data-name="Laag 1" xmlns="http://www.w3.org/2000/svg" viewBox="0 0 1500 331.89">
  <defs>
    <style>
      .cls-1 {
        fill: #fff;
      }
    </style>
  </defs>
  <g>
    <path class="cls-1" d="M66.29,105.67l3.51-.59c0-12.68,6.19-21.8,18.58-27.36,12.38-5.56,29.79-8.34,52.23-8.34V202.22c0,14.24-.29,25.56-.88,33.94-.59,8.39-1.95,14.63-4.1,18.72-2.15,4.1-5.51,6.78-10.09,8.05-4.59,1.27-10.97,1.9-19.16,1.9l-.59,3.51h90.12l-.59-3.51c-8,0-14.34-.63-19.02-1.9-4.68-1.26-8.1-3.95-10.24-8.05-2.15-4.1-3.51-10.33-4.1-18.72-.58-8.39-.88-19.7-.88-33.94V69.39c22.63,0,39.98,2.78,52.08,8.34,12.09,5.56,18.14,14.68,18.14,27.36l3.51,.59V63.54H66.29v42.13Z"/>
    <path class="cls-1" d="M304.45,95.72c.59-8.38,1.8-14.68,3.66-18.87,1.85-4.19,4.68-6.92,8.48-8.19,3.8-1.27,9.02-1.9,15.65-1.9l.58-3.22h-79l.59,3.22c6.63,0,11.89,.64,15.8,1.9,3.9,1.27,6.78,4,8.63,8.19,1.85,4.2,3.02,10.49,3.51,18.87,.48,8.39,.73,19.7,.73,33.94v72.56c0,14.24-.25,25.56-.73,33.94-.49,8.39-1.66,14.63-3.51,18.72-1.86,4.1-4.73,6.78-8.63,8.05-3.9,1.27-9.17,1.9-15.8,1.9l-.59,3.51h79l-.58-3.51c-6.63,0-11.85-.63-15.65-1.9-3.8-1.26-6.63-3.95-8.48-8.05-1.86-4.1-3.07-10.33-3.66-18.72-.59-8.39-.88-19.7-.88-33.94v-72.56c0-14.24,.29-25.55,.88-33.94Z"/>
    <path class="cls-1" d="M578.14,97.58c.59-8.38,1.8-14.68,3.66-18.87,1.85-4.19,4.68-6.92,8.48-8.19,3.8-1.27,9.02-1.9,15.65-1.9l.59-3.22h-51.2l-74.61,170.58-90.41-170.58h-39.21l.59,3.22c6.63,0,12,.64,16.09,1.9,4.1,1.27,7.26,4,9.51,8.19,2.24,4.2,3.75,10.49,4.54,18.87,.78,8.39,1.17,19.8,1.17,34.23v71.69c0,14.24-.39,25.6-1.17,34.09-.78,8.49-2.3,14.83-4.54,19.02-2.25,4.2-5.41,6.93-9.51,8.19-4.1,1.27-9.46,1.9-16.09,1.9l-.59,3.51h71.98l-.59-3.51c-6.63,0-12.05-.63-16.24-1.9-4.2-1.26-7.46-4-9.8-8.19-2.34-4.19-3.95-10.53-4.83-19.02-.88-8.49-1.32-19.85-1.32-34.09V108.99l84.56,158.29,81.93-186.96v123.76c0,14.24-.25,25.56-.73,33.94-.49,8.39-1.61,14.63-3.37,18.72-1.75,4.1-4.54,6.78-8.34,8.05-3.8,1.27-9.02,1.9-15.65,1.9l-.59,3.51h78.41l-.59-3.51c-6.63,0-11.85-.63-15.65-1.9-3.8-1.26-6.63-3.95-8.48-8.05-1.86-4.1-3.07-10.33-3.66-18.72-.59-8.39-.88-19.7-.88-33.94v-72.56c0-14.24,.29-25.55,.88-33.94Z"/>
    <path class="cls-1" d="M621.59,105.67l3.51-.59c0-12.68,6.19-21.8,18.58-27.36,12.38-5.56,29.79-8.34,52.23-8.34V202.22c0,14.24-.29,25.56-.88,33.94-.58,8.39-1.95,14.63-4.1,18.72-2.15,4.1-5.51,6.78-10.09,8.05-4.59,1.27-10.97,1.9-19.17,1.9l-.58,3.51h90.12l-.58-3.51c-8,0-14.34-.63-19.02-1.9-4.68-1.26-8.1-3.95-10.24-8.05-2.15-4.1-3.51-10.33-4.1-18.72-.59-8.39-.88-19.7-.88-33.94V69.39c22.63,0,39.98,2.78,52.08,8.34,12.09,5.56,18.14,14.68,18.14,27.36l3.51,.59V63.54h-168.53v42.13Z"/>
    <path class="cls-1" d="M809.74,66.73c6.62,0,11.86,.64,15.65,1.9,3.79,1.29,6.62,4.02,8.48,8.2,1.86,4.21,3.09,10.51,3.66,18.9,.58,8.39,.87,19.7,.87,33.94v72.57c0,14.24-.29,25.55-.87,33.94-.58,8.39-1.8,14.69-3.66,18.9-1.86,4.18-4.69,6.91-8.48,8.2-3.79,1.25-9.03,1.9-15.65,1.9l-.58,3.21h136.62v-42.13l-3.5,.58c0,13.66-7.26,22.88-21.79,27.67-14.53,4.76-35.16,7.17-61.9,7.17v-92.17c13.85,0,24.78,.48,32.78,1.45,8,1,13.95,2.6,17.84,4.82,3.92,2.25,6.4,5.46,7.46,9.67,1.09,4.18,1.64,9.51,1.64,15.94l3.21,.58v-71.99l-3.21,.58c0,6.43-.55,11.76-1.64,15.94-1.06,4.21-3.54,7.42-7.46,9.67-3.89,2.22-9.83,3.82-17.84,4.82-8,.96-18.93,1.45-32.78,1.45V70.24c26.74,0,47.37,2.41,61.9,7.17,14.53,4.79,21.79,14.01,21.79,27.67l3.5,.58V63.52h-136.62l.58,3.21Z"/>
    <path class="cls-1" d="M1194,252.26c-6.33,2.25-13.5,3.37-21.5,3.37-9.54,0-18.09-1.51-25.58-4.53-2.08-.83-4.09-1.75-6.13-2.63,9.73-8.34,17.55-18.48,23.43-30.45,8-16.28,12-34.38,12-54.27s-4.2-37.6-12.58-53.11c-8.39-15.51-20.33-27.7-35.84-36.57-15.51-8.87-33.99-13.31-55.45-13.31s-39.45,4.44-54.57,13.31c-15.12,8.88-26.73,21.07-34.82,36.57-8.1,15.51-12.14,33.21-12.14,53.11,0,14.83,2.39,28.77,7.17,41.84,4.78,13.07,11.7,24.48,20.77,34.23,9.07,9.76,19.99,17.41,32.77,22.97,12.77,5.56,27.16,8.34,43.16,8.34,19.1,0,35.67-3.81,49.75-11.38,4.97,2.35,9.93,4.55,14.87,6.56,7.91,3.21,15.94,4.82,24.14,4.82,13.27,0,23.75-2.47,31.46-7.46,7.68-4.98,14.17-10.28,19.44-15.94l-3.5-3.79c-4.89,3.31-10.48,6.07-16.84,8.32Zm-119.31,12.13c-16.97,0-31.31-4.24-43.01-12.73-.08-.06-.16-.13-.24-.19,2.62-2.79,7.39-6.48,15.56-8.73,2.7-.96,5.59-1.74,8.61-2.31,3.02-.61,6.11-.9,9.22-.9,8.97,0,17.64,1.61,26.03,4.82,7.67,2.97,15.17,6.28,22.52,9.97-10.56,6.7-23.45,10.07-38.7,10.07Zm52.67-22.16c-.75-.37-1.52-.72-2.26-1.1-1.7-.87-3.47-1.7-5.27-2.47-.23-.1-.45-.19-.67-.29-.74-.32-1.48-.61-2.22-.9-.9-.35-1.77-.67-2.67-1-.58-.19-1.19-.39-1.77-.58-.74-.22-1.45-.45-2.19-.67-15.54-4.42-32.74-4.7-48.64-2.23-5.66,.88-11.25,2.2-16.71,3.95-3.73,1.2-7.39,2.59-11.01,4.07-1.81,.74-3.62,1.51-5.41,2.28-.44,.19-4.28,2.16-4.49,1.96-7.98-7.67-14.28-17.23-18.86-28.71-5.95-14.92-8.92-31.84-8.92-50.76s2.78-35.79,8.34-50.62c5.56-14.82,13.99-26.48,25.31-34.96,11.31-8.48,25.46-12.73,42.43-12.73s31.55,4.24,43.16,12.73c11.6,8.48,20.38,20.14,26.33,34.96,5.95,14.83,8.92,31.7,8.92,50.62s-2.78,35.84-8.34,50.76c-3.73,10.02-8.78,18.56-15.06,25.68Z"/>
  </g>
  <path class="cls-1" d="M1433.71,108.4c-2.94,17.69-4.12,35.59-4.47,53.51-.12,5.79-.12,11.59-.14,17.38-.12,11.13-4.65,21.74-10.74,30.9-6.07,8.7-13.54,16.32-21.93,22.79v-12.16c6.68-4.51,12.63-10.04,17.33-16.75,4.92-6.9,8.19-14.92,8.89-23.42,.16-5.89-.24-11.82-.38-17.72-.45-20.16-3.48-40.57-3.76-40.57-1.74-.04-3.48-.07-5.21-.16-16.56-1.02-30.45-6.8-42.4-18.28-11.95,11.48-25.82,17.26-42.38,18.28-1.75,.09-3.49,.12-5.22,.16-.29,0-3.3,20.41-3.76,40.57-.13,5.9-.53,11.83-.39,17.72,.69,8.5,3.96,16.52,8.91,23.42,6.02,8.62,14.12,15.27,23.16,20.34,4.83,2.73,9.94,5.01,15.15,6.89v-70.56c-8,.07-14.3,1.1-18.74,3.1-4.43,2-6.6,5.16-6.6,9.68v.65l-2.85,.47v-17.63h65.44v17.63l-2.85-.47v-.65c0-4.52-2.1-7.7-6.43-9.68-4.34-2-10.62-3.03-18.68-3.1v85.06c-1.52,.74-3.03,1.45-4.58,2.12l-.16,.07h-.03l-.16-.07c-1.47-.64-2.92-1.32-4.36-2.01-5.24-2.53-10.32-5.44-15.15-8.71-10.77-7.29-20.34-16.34-27.76-27.01-6.09-9.16-10.62-19.77-10.76-30.9,0-5.78-.02-11.59-.13-17.38-.36-17.91-1.53-35.82-4.48-53.51,45.97,4.37,58.69-24.5,59.23-24.5,1.2,.02,2.39,.02,3.57,.02s2.4,0,3.58-.02c.55,0,13.27,28.87,59.23,24.5Z"/>
</svg>