<?xml version="1.0" encoding="UTF-8"?>
<svg id="Laag_1" data-name="Laag 1" xmlns="http://www.w3.org/2000/svg" viewBox="0 0 783.1 1004.31">
  <defs>
    <style>
      .cls-1 {
        fill: #1d1d1b;
      }
    </style>
  </defs>
  <path class="cls-1" d="M728.45,193.45c-15.78,94.89-22.09,190.95-23.96,287.05-.66,31.06-.66,62.19-.76,93.23-.63,59.72-24.95,116.61-57.6,165.77-32.55,46.66-72.62,87.57-117.67,122.26v-65.25c35.86-24.22,67.75-53.86,92.97-89.84,26.39-36.99,43.94-80.05,47.67-125.62,.83-31.61-1.29-63.4-2.02-95.07-2.42-108.15-18.69-217.64-20.15-217.64-9.34-.23-18.69-.38-27.93-.88-88.83-5.45-163.35-36.49-227.48-98.07-64.11,61.59-138.53,92.62-227.33,98.07-9.37,.51-18.71,.66-27.98,.88-1.54,0-17.7,109.49-20.15,217.64-.71,31.66-2.83,63.46-2.1,95.07,3.71,45.58,21.26,88.63,47.77,125.62,32.32,46.23,75.73,81.91,124.23,109.13,25.93,14.62,53.33,26.87,81.28,36.97V474.24c-42.9,.35-76.74,5.88-100.55,16.61-23.79,10.71-35.4,27.67-35.4,51.92v3.48l-15.3,2.5v-94.56h351.06v94.56l-15.28-2.5v-3.48c0-24.24-11.29-41.28-34.52-51.92-23.28-10.73-56.99-16.26-100.22-16.61v456.31c-8.13,3.96-16.26,7.8-24.54,11.36l-.83,.38h-.18l-.86-.38c-7.88-3.41-15.68-7.07-23.38-10.81-28.13-13.56-55.35-29.16-81.28-46.71-57.77-39.09-109.13-87.67-148.93-144.89-32.67-49.16-56.99-106.05-57.7-165.77,0-31.03-.1-62.17-.68-93.23-1.92-96.1-8.18-192.16-24.01-287.05C301.28,216.91,369.53,62.02,372.38,62.02c6.41,.1,12.83,.1,19.14,.1s12.85,0,19.19-.1c2.93,0,71.21,154.89,317.73,131.43Z"/>
</svg>